<svg width="16" height="13" viewBox="0 0 16 13" fill="none" xmlns="http://www.w3.org/2000/svg">
<path d="M4.7973 0.266698C4.63611 0.102465 4.3723 0.0999985 4.20807 0.261188L1.0414 3.36918C0.953802 3.45515 0.912225 3.57033 0.916958 3.68401C0.912942 3.79207 0.951087 3.89977 1.02721 3.98222L4.13518 7.34839C4.29129 7.51747 4.55489 7.52798 4.72397 7.37188C4.89304 7.21577 4.90322 6.9518 4.74711 6.78272L2.28516 4.11624H10.5468C12.5594 4.11624 14.25 5.86768 14.25 8.05862C14.25 10.2496 12.5594 12.001 10.5468 12.001L1.33335 12.001C1.10323 12.001 0.91668 12.1875 0.91668 12.4176C0.916679 12.6478 1.10323 12.8343 1.33335 12.8343L10.5468 12.8343C13.063 12.8343 15.0834 10.6652 15.0834 8.05862C15.0834 5.45207 13.063 3.2829 10.5468 3.2829H2.31899L4.79179 0.855928C4.95602 0.694739 4.95849 0.430931 4.7973 0.266698Z" fill="#3B3B3B"/>
</svg>
